# xmcd
#
# Track frame offsets:
#	150
#	13257
#	28077
#	46967
#	60021
#	66598
#	79424
#	90821
#	101623
#	110503
#	121850
#	130509
#	145093
#	161011
#	171122
#	177998
#	193577
#	204584
#	218551
#	226994
#
# Disc length: 3197 seconds
#
# Revision: 1
# Processed by: cddbd v1.5.1PL2 Copyright (c) Steve Scherf et al.
# Submitted via: audiograbber 1.83.01
#
DISCID=0a0c7b14
DTITLE=юКЕЙЯЮМДП хЯРНЛХМ - няемэ цпсярэ опхмняхр
DYEAR=1900
DGENRE=
TTITLE0=няемэ цпсярэ опхмняхр
TTITLE1=мшмве,гюбрпю х бвепю
TTITLE2=мнбюъ ярюпюъ оеямъ
TTITLE3=орхжю кчахр ябн╗ цмегдн
TTITLE4=й мюл хд╗р беямю
TTITLE5=йнцдю бняундхр янкмже
TTITLE6=кчанбэ сашбюер
TTITLE7=опн яел╗мю
TTITLE8=онкянрмх кер-еы╗ ме бей
TTITLE9=яепдже люрепх
TTITLE10=GO DOWN MOSES
TTITLE11=SUSIE Q/MARY HAD A LITTLE LAMB
TTITLE12=GEORGIA ON MY MIND
TTITLE13=HELLO DOLLY
TTITLE14=LA BAMBA
TTITLE15=HOUSE OF THE RISING SUN
TTITLE16=JINGLE BELLS
TTITLE17=LADY MADONNA
TTITLE18=SOME OF THESE DAYS
TTITLE19=BABY,WON"T YOU PLEASE COME HOME?
EXTD=
EXTT0=
EXTT1=
EXTT2=
EXTT3=
EXTT4=
EXTT5=
EXTT6=
EXTT7=
EXTT8=
EXTT9=
EXTT10=
EXTT11=
EXTT12=
EXTT13=
EXTT14=
EXTT15=
EXTT16=
EXTT17=
EXTT18=
EXTT19=
PLAYORDER=
